<?xml version="1.0" standalone="no"?><!DOCTYPE svg PUBLIC "-//W3C//DTD SVG 1.1//EN" "http://www.w3.org/Graphics/SVG/1.1/DTD/svg11.dtd"><svg t="1606441253506" class="icon" viewBox="0 0 1024 1024" version="1.1" xmlns="http://www.w3.org/2000/svg" p-id="3629" xmlns:xlink="http://www.w3.org/1999/xlink" width="200" height="200"><defs><style type="text/css"></style></defs><path d="M935.377455 87.738182a222.533818 222.533818 0 0 0-314.647273 0L424.773818 283.787636a39.237818 39.237818 0 0 0 0 55.761455 39.237818 39.237818 0 0 0 55.761455 0l196.002909-196.049455a143.732364 143.732364 0 0 1 245.154909 101.469091c0 38.353455-14.941091 74.379636-42.123636 101.469091l-195.956364 195.956364a39.237818 39.237818 0 0 0 27.927273 67.258182 39.563636 39.563636 0 0 0 27.927272-11.450182l196.049455-196.049455a222.394182 222.394182 0 0 0-0.093091-314.414545zM364.264727 259.118545a39.284364 39.284364 0 0 0 39.424-39.377454L403.549091 61.672727a39.284364 39.284364 0 0 0-39.377455-39.377454 39.284364 39.284364 0 0 0-39.377454 39.377454v158.161455a38.632727 38.632727 0 0 0 11.636363 27.741091 39.424 39.424 0 0 0 27.880728 11.543272zM836.142545 778.24a38.912 38.912 0 0 0-27.787636-11.357091 39.377455 39.377455 0 0 0-27.927273 67.211636l111.802182 111.709091a39.237818 39.237818 0 0 0 55.761455 0 39.237818 39.237818 0 0 0 0-55.761454l-111.848728-111.802182z m124.928-159.185455h-158.208a38.632727 38.632727 0 0 0-27.694545 11.68291 39.284364 39.284364 0 0 0 27.694545 67.211636l158.11491-0.139636a39.284364 39.284364 0 0 0 39.377454-39.377455 39.098182 39.098182 0 0 0-39.284364-39.377455z m-301.009454 143.918546a39.284364 39.284364 0 0 0-39.377455 39.377454l0.139637 158.068364a39.284364 39.284364 0 0 0 39.377454 39.377455 39.284364 39.284364 0 0 0 39.377455-39.377455v-158.208a38.632727 38.632727 0 0 0-11.636364-27.694545 39.424 39.424 0 0 0-27.880727-11.543273z m-116.596364-80.290909l-195.956363 196.002909a142.801455 142.801455 0 0 1-101.469091 42.123636 142.149818 142.149818 0 0 1-101.422546-42.123636 143.080727 143.080727 0 0 1-0.093091-202.891636l196.049455-196.049455a39.237818 39.237818 0 0 0 0-55.714909 39.237818 39.237818 0 0 0-55.761455 0l-196.049454 195.816727a220.997818 220.997818 0 0 0-65.210182 157.323637c0 59.298909 23.133091 115.293091 65.210182 157.184a221.696 221.696 0 0 0 157.230545 65.11709c56.925091 0 113.989818-21.736727 157.184-65.163636l196.142546-195.909818a39.237818 39.237818 0 0 0 0-55.714909 39.563636 39.563636 0 0 0-55.854546 0zM188.229818 243.851636c7.866182 7.633455 17.687273 11.450182 27.787637 11.357091a39.377455 39.377455 0 0 0 27.927272-67.211636L132.189091 76.381091a39.237818 39.237818 0 0 0-55.761455 0 39.237818 39.237818 0 0 0 0 55.761454l111.848728 111.709091zM63.301818 403.130182H221.556364a38.632727 38.632727 0 0 0 27.694545-11.636364 39.284364 39.284364 0 0 0-27.694545-67.258182l-158.114909 0.139637a39.284364 39.284364 0 0 0-39.377455 39.377454 39.005091 39.005091 0 0 0 39.284364 39.377455z" p-id="3630"></path></svg>